<svg width="131" height="132" viewBox="0 0 131 132" fill="none" xmlns="http://www.w3.org/2000/svg">
<path d="M131 65.636C131 101.886 101.675 131.272 65.5 131.272C29.3253 131.272 0 101.886 0 65.636C0 29.3862 29.3253 0 65.5 0C101.675 0 131 29.3862 131 65.636Z" fill="#A92232"/>
<path d="M62.875 69.6875L54.7812 61.5937L50.375 66L62.875 78.5L84.75 56.625L80.3438 52.2188L62.875 69.6875Z" fill="white"/>
<path d="M109.75 62.875H103.344C102.596 54.0502 98.7503 45.7745 92.4879 39.5121C86.2255 33.2497 77.9498 29.4043 69.125 28.6563V22.25H62.875V28.6563C54.0502 29.4043 45.7745 33.2497 39.5121 39.5121C33.2497 45.7745 29.4043 54.0502 28.6563 62.875H22.25V69.125H28.6563C29.4043 77.9498 33.2497 86.2255 39.5121 92.4879C45.7745 98.7503 54.0502 102.596 62.875 103.344V109.75H69.125V103.344C77.9498 102.596 86.2255 98.7503 92.4879 92.4879C98.7503 86.2255 102.596 77.9498 103.344 69.125H109.75V62.875ZM69.125 97.0938V87.875H62.875V97.0938C55.7062 96.3633 49.0089 93.1819 43.9135 88.0865C38.8181 82.9911 35.6367 76.2938 34.9063 69.125H44.125V62.875H34.9063C35.6367 55.7062 38.8181 49.0089 43.9135 43.9135C49.0089 38.8181 55.7062 35.6367 62.875 34.9063V44.125H69.125V34.9063C76.2938 35.6367 82.9911 38.8181 88.0865 43.9135C93.1819 49.0089 96.3633 55.7062 97.0938 62.875H87.875V69.125H97.0906C96.3603 76.2934 93.1793 82.9903 88.0846 88.0856C82.9899 93.1809 76.2933 96.3626 69.125 97.0938Z" fill="white"/>
</svg>
