<svg width="131" height="132" viewBox="0 0 131 132" fill="none" xmlns="http://www.w3.org/2000/svg">
<path d="M131 65.6677C131 101.935 101.675 131.335 65.5 131.335C29.3253 131.335 0 101.935 0 65.6677C0 29.4004 29.3253 0 65.5 0C101.675 0 131 29.4004 131 65.6677Z" fill="#2268A9"/>
<path d="M100 105.77C96.8099 108.968 91.7969 111.857 84.9609 114.435C78.125 117.013 71.8099 118.302 66.0156 118.302C60.0911 118.302 53.6133 117.013 46.582 114.435C39.5508 111.857 34.4401 108.968 31.25 105.77C27.0833 101.593 25 84.8835 25 55.6421V21.1791C25 20.3306 25.3092 19.5963 25.9277 18.9762C26.5462 18.3561 27.2786 18.0461 28.125 18.0461C28.9714 18.0461 29.7038 18.3561 30.3223 18.9762C30.9408 19.5963 31.25 20.3306 31.25 21.1791L34.8633 35.7671C38.7695 32.2425 43.4408 29.4522 48.877 27.3961C54.3132 25.3401 60.026 24.3121 66.0156 24.3121C71.9401 24.3121 77.5391 25.3238 82.8125 27.3472C88.0859 29.3706 92.6107 32.112 96.3867 35.5713L100 21.1791C100 20.3306 100.309 19.5963 100.928 18.9762C101.546 18.3561 102.279 18.0461 103.125 18.0461C103.971 18.0461 104.704 18.3561 105.322 18.9762C105.941 19.5963 106.25 20.3306 106.25 21.1791V55.6421C106.25 84.8835 104.167 101.593 100 105.77ZM50 61.9081C48.3073 61.9081 46.1751 61.2554 43.6035 59.95C41.0319 58.6446 39.2904 57.1433 38.3789 55.4463C37.793 56.5559 37.5 57.6655 37.5 58.7751C37.5 61.5818 38.2487 63.8499 39.7461 65.5796C41.2435 67.3093 43.6198 68.1741 46.875 68.1741C50 68.1741 52.2298 67.7172 53.5645 66.8034C54.8991 65.8896 55.7943 64.2579 56.25 61.9081H50ZM92.8711 55.4463C91.9596 57.2086 90.2506 58.7262 87.7441 59.9989C85.2376 61.2717 83.0729 61.9081 81.25 61.9081H75C75.4557 64.2579 76.3509 65.8896 77.6855 66.8034C79.0202 67.7172 81.25 68.1741 84.375 68.1741C87.6302 68.1741 90.0065 67.3093 91.5039 65.5796C93.0013 63.8499 93.75 61.5818 93.75 58.7751C93.75 57.6655 93.457 56.5559 92.8711 55.4463ZM65.625 86.9721L31.25 74.4401C31.25 88.6692 33.0078 97.5787 36.5234 101.169C39.1927 103.91 43.5221 106.407 49.5117 108.658C55.5013 110.91 60.9701 112.036 65.918 112.036C70.8008 112.036 76.1393 110.927 81.9336 108.707C87.7279 106.488 91.9922 103.975 94.7266 101.169C98.2422 97.5787 100 88.6692 100 74.4401L65.625 86.9721Z" fill="#130A1D"/>
</svg>
