<svg width="307" height="48" viewBox="0 0 307 48" fill="none" xmlns="http://www.w3.org/2000/svg">
<path d="M6.65059 32.1955H22.4655V37.0285H0.597366V2.19254H6.65059V32.1955Z" fill="#A92232"/>
<path d="M37.8455 37.507C34.1609 37.507 31.1702 36.3506 28.8733 34.0378C26.5924 31.709 25.452 28.6146 25.452 24.7545V24.0368C25.452 21.4528 25.9464 19.1479 26.9354 17.1222C27.9402 15.0806 29.3439 13.4935 31.1463 12.361C32.9487 11.2285 34.9585 10.6623 37.1756 10.6623C40.7007 10.6623 43.4202 11.7868 45.3343 14.0358C47.2643 16.2848 48.2293 19.4669 48.2293 23.5822V25.9269H31.3138C31.4892 28.0643 32.199 29.755 33.4432 30.9992C34.7033 32.2433 36.2824 32.8654 38.1805 32.8654C40.8442 32.8654 43.0135 31.7887 44.6883 29.6354L47.8226 32.6261C46.7858 34.1733 45.3981 35.3776 43.6595 36.2389C41.9368 37.0843 39.9988 37.507 37.8455 37.507ZM37.1517 15.3278C35.5566 15.3278 34.2646 15.8861 33.2757 17.0026C32.3027 18.1191 31.6806 19.6743 31.4095 21.6681H42.4871V21.2375C42.3595 19.2915 41.8411 17.824 40.9319 16.8351C40.0228 15.8302 38.7627 15.3278 37.1517 15.3278ZM68.1313 37.0285C67.876 36.534 67.6527 35.7285 67.4613 34.612C65.6111 36.542 63.3461 37.507 60.6664 37.507C58.0665 37.507 55.9451 36.7653 54.3022 35.2819C52.6592 33.7985 51.8378 31.9642 51.8378 29.779C51.8378 27.0195 52.8586 24.9061 54.9003 23.4386C56.9579 21.9552 59.8928 21.2135 63.705 21.2135H67.2699V19.5148C67.2699 18.175 66.8951 17.1063 66.1454 16.3087C65.3957 15.4953 64.2553 15.0885 62.724 15.0885C61.4001 15.0885 60.3155 15.4235 59.4701 16.0934C58.6247 16.7474 58.2021 17.5848 58.2021 18.6056H52.3881C52.3881 17.186 52.8586 15.8621 53.7997 14.6339C54.7408 13.3898 56.0168 12.4168 57.6278 11.715C59.2548 11.0132 61.0652 10.6623 63.059 10.6623C66.0896 10.6623 68.5061 11.4279 70.3085 12.9591C72.1109 14.4744 73.036 16.6118 73.0839 19.3712V31.047C73.0839 33.3758 73.4109 35.234 74.0648 36.6217V37.0285H68.1313ZM61.7431 32.8415C62.8915 32.8415 63.9682 32.5623 64.973 32.0041C65.9939 31.4458 66.7595 30.6961 67.2699 29.755V24.8742H64.1356C61.9823 24.8742 60.3633 25.249 59.2787 25.9987C58.1941 26.7484 57.6518 27.8091 57.6518 29.1808C57.6518 30.2974 58.0186 31.1906 58.7523 31.8605C59.502 32.5145 60.4989 32.8415 61.7431 32.8415ZM78.0562 23.8932C78.0562 19.8737 78.9972 16.6676 80.8794 14.2751C82.7775 11.8665 85.2897 10.6623 88.416 10.6623C91.3669 10.6623 93.6877 11.6911 95.3784 13.7487L95.6416 11.1408H100.881V36.2389C100.881 39.6364 99.8206 42.3161 97.6992 44.278C95.5938 46.2399 92.7466 47.2209 89.1577 47.2209C87.2596 47.2209 85.4014 46.8221 83.583 46.0246C81.7806 45.243 80.4089 44.2142 79.4678 42.9381L82.2192 39.445C84.0057 41.5664 86.2069 42.6271 88.8228 42.6271C90.7528 42.6271 92.276 42.1007 93.3926 41.048C94.5091 40.0112 95.0674 38.48 95.0674 36.4543V34.7077C93.3926 36.5739 91.1595 37.507 88.3682 37.507C85.3376 37.507 82.8573 36.3027 80.9272 33.8942C79.0132 31.4857 78.0562 28.152 78.0562 23.8932ZM83.8462 24.3957C83.8462 26.9956 84.3726 29.0452 85.4253 30.5446C86.494 32.028 87.9694 32.7697 89.8516 32.7697C92.1963 32.7697 93.9349 31.7648 95.0674 29.755V18.3664C93.9668 16.4044 92.2441 15.4235 89.8994 15.4235C87.9854 15.4235 86.494 16.1811 85.4253 17.6964C84.3726 19.2117 83.8462 21.4448 83.8462 24.3957ZM122.458 34.4923C120.751 36.5021 118.327 37.507 115.185 37.507C112.377 37.507 110.248 36.6855 108.796 35.0426C107.361 33.3997 106.643 31.0231 106.643 27.9128V11.1408H112.457V27.841C112.457 31.1268 113.821 32.7697 116.548 32.7697C119.372 32.7697 121.278 31.7568 122.267 29.7311V11.1408H128.081V37.0285H122.602L122.458 34.4923ZM145.303 37.507C141.618 37.507 138.628 36.3506 136.331 34.0378C134.05 31.709 132.909 28.6146 132.909 24.7545V24.0368C132.909 21.4528 133.404 19.1479 134.393 17.1222C135.398 15.0806 136.801 13.4935 138.604 12.361C140.406 11.2285 142.416 10.6623 144.633 10.6623C148.158 10.6623 150.878 11.7868 152.792 14.0358C154.722 16.2848 155.687 19.4669 155.687 23.5822V25.9269H138.771C138.947 28.0643 139.656 29.755 140.901 30.9992C142.161 32.2433 143.74 32.8654 145.638 32.8654C148.302 32.8654 150.471 31.7887 152.146 29.6354L155.28 32.6261C154.243 34.1733 152.856 35.3776 151.117 36.2389C149.394 37.0843 147.456 37.507 145.303 37.507ZM144.609 15.3278C143.014 15.3278 141.722 15.8861 140.733 17.0026C139.76 18.1191 139.138 19.6743 138.867 21.6681H149.945V21.2375C149.817 19.2915 149.299 17.824 148.389 16.8351C147.48 15.8302 146.22 15.3278 144.609 15.3278ZM230.514 37.0285C230.258 36.534 230.035 35.7285 229.844 34.612C227.993 36.542 225.729 37.507 223.049 37.507C220.449 37.507 218.327 36.7653 216.685 35.2819C215.042 33.7985 214.22 31.9642 214.22 29.779C214.22 27.0195 215.241 24.9061 217.283 23.4386C219.34 21.9552 222.275 21.2135 226.087 21.2135H229.652V19.5148C229.652 18.175 229.278 17.1063 228.528 16.3087C227.778 15.4953 226.638 15.0885 225.106 15.0885C223.783 15.0885 222.698 15.4235 221.853 16.0934C221.007 16.7474 220.584 17.5848 220.584 18.6056H214.771C214.771 17.186 215.241 15.8621 216.182 14.6339C217.123 13.3898 218.399 12.4168 220.01 11.715C221.637 11.0132 223.448 10.6623 225.441 10.6623C228.472 10.6623 230.889 11.4279 232.691 12.9591C234.493 14.4744 235.418 16.6118 235.466 19.3712V31.047C235.466 33.3758 235.793 35.234 236.447 36.6217V37.0285H230.514ZM224.125 32.8415C225.274 32.8415 226.351 32.5623 227.355 32.0041C228.376 31.4458 229.142 30.6961 229.652 29.755V24.8742H226.518C224.365 24.8742 222.746 25.249 221.661 25.9987C220.576 26.7484 220.034 27.8091 220.034 29.1808C220.034 30.2974 220.401 31.1906 221.135 31.8605C221.884 32.5145 222.881 32.8415 224.125 32.8415ZM249.865 25.9269L247.281 28.5827V37.0285H241.467V0.278473H247.281V21.4767L249.1 19.2038L256.254 11.1408H263.24L253.622 21.9313L264.269 37.0285H257.546L249.865 25.9269ZM277.878 37.507C274.194 37.507 271.203 36.3506 268.906 34.0378C266.625 31.709 265.485 28.6146 265.485 24.7545V24.0368C265.485 21.4528 265.979 19.1479 266.968 17.1222C267.973 15.0806 269.376 13.4935 271.179 12.361C272.981 11.2285 274.991 10.6623 277.208 10.6623C280.733 10.6623 283.453 11.7868 285.367 14.0358C287.297 16.2848 288.262 19.4669 288.262 23.5822V25.9269H271.346C271.522 28.0643 272.232 29.755 273.476 30.9992C274.736 32.2433 276.315 32.8654 278.213 32.8654C280.877 32.8654 283.046 31.7887 284.721 29.6354L287.855 32.6261C286.818 34.1733 285.431 35.3776 283.692 36.2389C281.969 37.0843 280.031 37.507 277.878 37.507ZM277.184 15.3278C275.589 15.3278 274.297 15.8861 273.308 17.0026C272.335 18.1191 271.713 19.6743 271.442 21.6681H282.52V21.2375C282.392 19.2915 281.874 17.824 280.965 16.8351C280.055 15.8302 278.795 15.3278 277.184 15.3278ZM306.25 16.4523C305.484 16.3247 304.695 16.2609 303.881 16.2609C301.217 16.2609 299.423 17.2817 298.498 19.3234V37.0285H292.684V11.1408H298.235L298.378 14.0358C299.782 11.7868 301.728 10.6623 304.216 10.6623C305.046 10.6623 305.731 10.7739 306.274 10.9972L306.25 16.4523Z" fill="white"/>
<path d="M180.633 2.19254L190.682 28.8937L200.706 2.19254H208.53V37.0285H202.501V25.5441L203.099 10.1837L192.811 37.0285H188.48L178.216 10.2077L178.814 25.5441V37.0285H172.785V2.19254H180.633Z" fill="#2268A9"/>
</svg>
